<svg fill="none" height="549" viewBox="0 0 1841 549" width="1841" xmlns="http://www.w3.org/2000/svg" xmlns:xlink="http://www.w3.org/1999/xlink"><linearGradient id="a" gradientUnits="userSpaceOnUse" x1="73.142" x2="246.208" y1="587.332" y2="113.998"><stop offset=".133286" stop-color="#114d94"/><stop offset=".935053" stop-color="#0abab5"/></linearGradient><clipPath id="b"><path d="m447.808 0h1392.24v548.057h-1392.24z"/></clipPath><path clip-rule="evenodd" d="m224.058 481.38c-6.67 11.552-23.343 11.551-30.013 0l-191.13615-331.058c-6.66943-11.552 1.66732-25.991 15.00615-25.991h55.5564c6.1906 0 11.9109 3.302 15.0062 8.663l78.7124 136.335c6.67 11.552 23.343 11.552 30.013 0l78.713-136.335c3.095-5.361 8.815-8.663 15.006-8.663h109.265c13.339 0 21.676 14.439 15.007 25.991zm-65.763 66.677c13.339 0 21.676-14.44 15.006-25.992l-47.766-82.734c-6.67-11.552-23.343-11.552-30.0129 0l-47.7668 82.734c-6.6695 11.552 1.6673 25.992 15.0062 25.992z" fill="url(#a)" fill-rule="evenodd"/><g clip-path="url(#b)" fill="#323639"><path d="m185.876 548.057c-23.211 0-42.984-3.009-59.319-9.027v-52.226c7.308 2.579 13.97 4.298 19.988 5.158 6.448.859 12.896 1.289 19.343 1.289 13.326 0 24.072-2.149 32.239-6.447 8.167-4.299 15.26-11.176 21.278-20.633 6.447-9.027 13.325-20.848 20.632-35.463l-136.047-301.753h72.86l98.005 226.96 99.295-226.96h72.215l-124.442 288.213c-10.746 25.791-22.352 48.358-34.817 67.701-12.036 19.773-26.221 35.248-42.555 46.424-15.905 11.176-35.463 16.764-58.675 16.764z"/><path d="m555.477 441.025c-19.343 0-37.396-3.439-54.161-10.317-16.334-6.877-29.444-17.194-39.331-30.949-9.886-14.185-14.829-31.594-14.829-52.226 0-29.23 9.886-52.657 29.659-70.281 20.203-18.053 51.152-27.08 92.847-27.08h98.006v-13.54c0-14.615-2.364-26.221-7.093-34.818-4.298-8.597-12.465-14.83-24.501-18.698-11.606-3.869-28.8-5.803-51.582-5.803-36.107 0-69.85 5.373-101.229 16.119v-52.227c13.755-5.588 30.519-10.101 50.292-13.54s41.051-5.158 63.833-5.158c44.704 0 78.662 9.027 101.874 27.08 23.641 18.054 35.462 47.499 35.462 88.334v196.656h-59.964l-4.513-30.949c-12.466 12.036-27.94 21.277-46.424 27.725-18.053 6.448-40.835 9.672-68.346 9.672zm18.699-50.293c21.062 0 39.331-3.438 54.806-10.316 15.904-7.307 28.799-16.979 38.686-29.015v-53.516h-96.716c-20.633 0-35.678 4.084-45.134 12.251-9.027 7.737-13.54 19.773-13.54 36.107 0 15.904 5.373 27.295 16.119 34.173s26.006 10.316 45.779 10.316z"/><path d="m812.661 434.577v-305.622h64.477l3.224 32.238c13.755-10.746 30.09-19.773 49.003-27.08 19.343-7.737 40.621-11.606 63.833-11.606 39.542 0 68.342 9.242 86.402 27.725 18.05 18.484 27.08 47.283 27.08 86.4v197.945h-69.64v-194.721c0-23.642-4.94-40.191-14.83-49.648-9.45-9.457-27.508-14.185-54.158-14.185-15.905 0-31.594 3.224-47.069 9.672-15.045 6.447-27.725 14.829-38.042 25.146v223.736z"/><path d="m1325.49 441.025c-55.02 0-95.43-13.755-121.22-41.266-25.36-27.51-38.04-66.841-38.04-117.993s12.89-90.483 38.68-117.994c25.8-27.51 65.99-41.265 120.58-41.265 55.02 0 95.42 13.755 121.21 41.265 25.8 27.511 38.69 66.842 38.69 117.994s-12.89 90.483-38.69 117.993c-25.36 27.511-65.76 41.266-121.21 41.266zm0-59.319c32.24 0 55.02-7.738 68.34-23.212 13.76-15.905 20.64-41.481 20.64-76.728 0-35.248-6.88-60.609-20.64-76.083-13.32-15.475-36.1-23.212-68.34-23.212-31.81 0-54.59 7.737-68.35 23.212-13.32 15.474-19.99 40.835-19.99 76.083 0 35.247 6.67 60.823 19.99 76.728 13.76 15.474 36.54 23.212 68.35 23.212z"/><path d="m1553.77 434.577v-434.577h70.28v251.461l128.31-122.506h80.6l-124.44 123.151 131.53 182.471h-74.15l-101.23-145.074-40.62 38.686v106.388z"/></g></svg>