<svg class="svg-icon" style="width: 1em;height: 1em;vertical-align: middle;fill: currentColor;overflow: hidden;" viewBox="0 0 1024 1024" version="1.1" xmlns="http://www.w3.org/2000/svg"><path d="M96 96h640l192 192v640H96z" fill="#FFFFFF" /><path d="M384 544v32H256v320h128v32H96V96h640l192 192v160h-32V301.248l-160-160V384H288V128H128v768h96V544h160zM320 128v224h384V128H320z" fill="#5D6D7E" /><path d="M320 640h64v32h-64v-32z m0 96h64v32h-64v-32z" fill="#ACB4C0" /><path d="M544 160h96v160h-96z" fill="#3B97D3" /><path d="M736 928v32l-288-66.56V539.104L736 480v32h192a32 32 0 0 1 32 32v352a32 32 0 0 1-32 32h-192z m0-32h192V544h-192v352z m-224-95.68h38.816l35.68-55.424 38.72 59.968 39.872 0.48-58.816-87.456 54.624-83.2-39.68 0.736-34.08 56.096L554.976 640h-37.824l49.632 76.672L512 800.352zM736 576h64v32h-64v-32z m0 64h64v32h-64v-32z m0 64h64v32h-64v-32z m0 64h64v32h-64v-32z m0 64h64v32h-64v-32z m96-256h64v32h-64v-32z m0 64h64v32h-64v-32z m0 64h64v32h-64v-32z m0 64h64v32h-64v-32z m0 64h64v32h-64v-32z" fill="#1E7144" /></svg>